<svg width="750" height="750" viewBox="0 0 750 750" fill="none" xmlns="http://www.w3.org/2000/svg">
<path d="M700.335 474.299H454.5V332.039H700.335V474.299ZM456 472.799H698.835V333.539H456V472.799Z" fill="#E0E0E0"/>
<path d="M649.62 407.895H487.425V412.65H649.62V407.895Z" fill="#F0F0F0"/>
<path d="M660.795 425.625H487.425V430.815H660.795V425.625Z" fill="#F0F0F0"/>
<path d="M660.795 443.564H487.425V448.754H660.795V443.564Z" fill="#F0F0F0"/>
<path d="M544.11 382.139H487.425V394.484H544.11V382.139Z" fill="#F0F0F0"/>
<path d="M699.585 332.789H455.295V355.439H699.585V332.789Z" fill="#E0E0E0"/>
<path d="M680.79 352.049C680.475 351.749 683.625 347.954 687.81 343.574C691.995 339.194 695.67 335.879 695.97 336.164C696.27 336.449 693.135 340.259 688.95 344.654C684.765 349.049 681.09 352.349 680.79 352.049Z" fill="white"/>
<path d="M696 352.048C695.7 352.348 692.04 349.048 687.84 344.653C683.64 340.258 680.505 336.463 680.82 336.163C681.135 335.863 684.78 339.163 688.98 343.573C693.18 347.983 696.285 351.748 696 352.048Z" fill="white"/>
<path d="M397.83 51.0742H153.54V191.849H397.83V51.0742Z" fill="#E6E6E6"/>
<path d="M347.88 126.193H185.685V130.948H347.88V126.193Z" fill="#F0F0F0"/>
<path d="M359.055 143.924H185.685V149.114H359.055V143.924Z" fill="#F0F0F0"/>
<path d="M359.055 161.863H185.685V167.053H359.055V161.863Z" fill="#F0F0F0"/>
<path d="M242.37 100.439H185.685V112.784H242.37V100.439Z" fill="#F0F0F0"/>
<path d="M397.83 51.0742H153.54V73.7242H397.83V51.0742Z" fill="#E0E0E0"/>
<path d="M378.21 70.2287C377.895 69.9437 381.045 66.1337 385.23 61.7537C389.415 57.3737 393.09 54.0587 393.39 54.3587C393.69 54.6587 390.555 58.4537 386.37 62.8337C382.185 67.2137 378.51 70.4987 378.21 70.2287Z" fill="white"/>
<path d="M393.39 70.2288C393.09 70.5288 389.43 67.2288 385.23 62.8338C381.03 58.4388 377.895 54.6588 378.21 54.3588C378.525 54.0588 382.17 57.3588 386.37 61.7538C390.57 66.1488 393.705 69.9438 393.39 70.2288Z" fill="white"/>
<path d="M305.31 312.584H59.52V170.309H305.31V312.584ZM61.02 311.084H303.81V171.809H61.02V311.084Z" fill="#E0E0E0"/>
<path d="M254.61 246.18H92.415V250.935H254.61V246.18Z" fill="#F0F0F0"/>
<path d="M265.785 263.91H92.415V269.1H265.785V263.91Z" fill="#F0F0F0"/>
<path d="M265.785 281.85H92.415V287.04H265.785V281.85Z" fill="#F0F0F0"/>
<path d="M149.1 220.424H92.415V232.769H149.1V220.424Z" fill="#F0F0F0"/>
<path d="M304.56 171.059H60.27V193.709H304.56V171.059Z" fill="#E0E0E0"/>
<path d="M588.975 345.18H300.525V603.42H588.975V345.18Z" fill="#E6E6E6"/>
<path d="M315.03 263.834H89.0698V498.599H315.03V263.834Z" fill="#F0F0F0"/>
<path d="M315.03 263.834H89.0698V289.409H315.03V263.834Z" fill="#E0E0E0"/>
<path d="M107.73 276.36C107.689 277.288 107.377 278.183 106.831 278.934C106.286 279.685 105.532 280.26 104.663 280.587C103.794 280.914 102.849 280.978 101.943 280.772C101.038 280.566 100.213 280.099 99.5714 279.428C98.9293 278.758 98.4983 277.914 98.3318 277C98.1652 276.087 98.2706 275.145 98.6347 274.291C98.9988 273.437 99.6057 272.709 100.38 272.197C101.154 271.685 102.062 271.411 102.99 271.41C104.274 271.442 105.493 271.98 106.381 272.907C107.269 273.835 107.754 275.076 107.73 276.36Z" fill="white"/>
<path d="M126.975 276.36C126.937 277.292 126.626 278.192 126.08 278.948C125.534 279.704 124.778 280.283 123.905 280.613C123.033 280.943 122.083 281.009 121.173 280.803C120.264 280.596 119.435 280.127 118.79 279.454C118.145 278.78 117.712 277.932 117.546 277.014C117.379 276.097 117.486 275.15 117.853 274.293C118.221 273.436 118.832 272.705 119.611 272.193C120.39 271.68 121.303 271.408 122.235 271.41C123.519 271.442 124.738 271.98 125.626 272.907C126.514 273.835 126.999 275.076 126.975 276.36Z" fill="white"/>
<path d="M146.22 276.36C146.182 277.292 145.87 278.192 145.324 278.948C144.779 279.704 144.022 280.283 143.15 280.613C142.278 280.943 141.327 281.009 140.418 280.803C139.508 280.596 138.68 280.127 138.035 279.454C137.39 278.78 136.957 277.932 136.79 277.014C136.624 276.097 136.731 275.15 137.098 274.293C137.465 273.436 138.076 272.705 138.855 272.193C139.635 271.68 140.547 271.408 141.48 271.41C142.764 271.442 143.983 271.98 144.871 272.907C145.759 273.835 146.244 275.076 146.22 276.36Z" fill="white"/>
<path d="M668.07 102.42H379.62V389.91H668.07V102.42Z" fill="#F0F0F0"/>
<path d="M668.07 102.42H379.62V136.095H668.07V102.42Z" fill="#E0E0E0"/>
<path d="M404.19 118.92C404.137 120.144 403.726 121.325 403.007 122.318C402.289 123.311 401.294 124.07 400.148 124.502C399.001 124.935 397.753 125.021 396.558 124.75C395.363 124.479 394.274 123.863 393.426 122.978C392.578 122.093 392.008 120.979 391.788 119.774C391.568 118.568 391.706 117.325 392.187 116.198C392.667 115.07 393.468 114.109 394.49 113.433C395.512 112.757 396.71 112.396 397.935 112.395C399.629 112.434 401.238 113.143 402.41 114.365C403.582 115.588 404.222 117.226 404.19 118.92Z" fill="white"/>
<path d="M427.695 114.51C428.527 115.413 429.074 116.541 429.269 117.753C429.464 118.965 429.299 120.207 428.793 121.326C428.286 122.444 427.462 123.389 426.423 124.042C425.384 124.696 424.175 125.029 422.948 125C421.721 124.972 420.529 124.582 419.521 123.881C418.514 123.18 417.735 122.198 417.281 121.057C416.828 119.916 416.72 118.667 416.971 117.466C417.223 116.264 417.822 115.163 418.695 114.3C419.918 113.136 421.552 112.505 423.239 112.545C424.926 112.584 426.528 113.291 427.695 114.51Z" fill="white"/>
<path d="M454.86 118.92C454.807 120.144 454.396 121.325 453.677 122.318C452.959 123.311 451.964 124.07 450.818 124.502C449.671 124.935 448.423 125.021 447.228 124.75C446.033 124.479 444.944 123.863 444.096 122.978C443.248 122.093 442.678 120.979 442.458 119.774C442.238 118.568 442.376 117.325 442.857 116.198C443.337 115.07 444.138 114.109 445.16 113.433C446.182 112.757 447.38 112.396 448.605 112.395C450.299 112.434 451.908 113.143 453.08 114.365C454.252 115.588 454.892 117.226 454.86 118.92Z" fill="white"/>
<path d="M605.76 679.695C605.76 679.905 501.6 680.085 373.155 680.085C244.71 680.085 140.505 679.905 140.505 679.695C140.505 679.485 244.65 679.305 373.155 679.305C501.66 679.305 605.76 679.5 605.76 679.695Z" fill="#263238"/>
<path d="M504.27 496.064C481.095 479.879 475.845 449.834 476.76 422.819C476.91 418.319 476.415 413.549 478.56 409.604C480.705 405.659 485.715 402.944 489.75 404.834C493.095 406.409 494.55 410.309 496.425 413.534C498.927 417.83 502.593 421.329 507 423.629C509.865 425.129 513.42 426.029 516.255 424.469C520.155 422.324 520.605 416.969 520.575 412.469C520.575 404.099 520.525 395.739 520.425 387.389C520.156 382.905 520.611 378.408 521.775 374.069C523.17 369.809 526.275 365.864 530.52 364.664C534.765 363.464 540.06 365.939 541.02 370.319C541.185 372.174 541.23 374.038 541.155 375.899C541.275 377.774 542.145 379.829 543.9 380.399C545.655 380.969 547.485 379.664 548.835 378.344C553.455 373.844 556.605 367.979 559.53 362.189C562.455 356.399 565.32 350.444 569.52 345.509C573.72 340.574 579.525 336.659 586.02 336.284C592.515 335.909 599.28 339.899 600.9 346.199C602.52 352.499 598.845 358.934 594.9 364.049C588.947 371.642 581.93 378.336 574.065 383.924C572.53 384.762 571.305 386.072 570.57 387.659C569.595 390.659 572.43 393.659 575.385 394.604C578.73 395.714 582.36 395.369 585.885 395.789C589.41 396.209 593.16 397.739 594.495 401.039C596.325 405.629 592.485 410.429 588.72 413.579C581.16 419.879 572.576 424.836 563.34 428.234C560.04 429.434 556.575 430.499 553.905 432.809C551.235 435.119 549.645 439.154 551.25 442.319C552.855 445.484 556.98 446.489 560.445 445.844C563.91 445.199 566.985 443.339 570.285 442.094C576.45 439.769 584.4 440.189 588.285 445.514C589.489 447.348 590.251 449.437 590.511 451.615C590.771 453.794 590.523 456.003 589.785 458.069C588.284 462.181 585.973 465.95 582.99 469.154C573.166 480.892 560.401 489.811 546 494.999C531.705 499.949 518.46 501.299 504.255 496.094" fill="#003895"/>
<path d="M594.3 339.988C594.3 339.988 594.165 340.138 593.865 340.408L592.53 341.593C591.36 342.643 589.635 344.173 587.46 346.198C581.294 351.924 575.567 358.107 570.33 364.693C566.985 368.848 563.52 373.558 559.83 378.673C556.14 383.788 552.33 389.308 548.55 395.173C544.52 401.358 540.83 407.758 537.495 414.343C535.755 417.778 534.225 421.363 532.65 425.023L528 436.198C521.871 450.274 516.533 464.682 512.01 479.353C508.368 491.357 505.857 503.676 504.51 516.148C503.638 524.565 503.497 533.042 504.09 541.483C504.33 544.483 504.555 546.778 504.765 548.338C504.855 549.088 504.915 549.688 504.975 550.123V550.738C504.911 550.543 504.866 550.342 504.84 550.138C504.765 549.703 504.675 549.118 504.555 548.368C504.285 546.868 504 544.498 503.73 541.498C503.007 533.041 503.057 524.536 503.88 516.088C505.143 503.563 507.599 491.187 511.215 479.128C515.7 464.416 521.023 449.972 527.16 435.868L531.93 424.738C533.505 421.093 535.05 417.478 536.805 414.028C540.163 407.423 543.884 401.008 547.95 394.813C551.79 388.813 555.66 383.383 559.305 378.313C562.95 373.243 566.475 368.503 569.805 364.363C575.096 357.794 580.899 351.655 587.16 346.003C589.38 344.008 591.15 342.508 592.35 341.503L593.745 340.378C593.916 340.229 594.102 340.099 594.3 339.988Z" fill="#263238"/>
<path d="M537 413.999C536.788 413.381 536.643 412.743 536.565 412.094C536.325 410.849 536.055 409.094 535.74 406.814C535.095 402.314 534.435 396.149 533.73 389.324C533.025 382.499 532.23 376.319 531.57 371.864C531.225 369.644 530.925 367.859 530.715 366.614C530.551 365.977 530.465 365.322 530.46 364.664C530.718 365.265 530.905 365.894 531.015 366.539C531.345 367.769 531.72 369.539 532.14 371.774C532.995 376.274 533.835 382.394 534.54 389.234C535.245 396.074 535.845 402.074 536.31 406.739C536.535 408.839 536.73 410.624 536.88 412.049C536.996 412.692 537.037 413.347 537 413.999Z" fill="#263238"/>
<path d="M594.72 403.229C593.99 403.387 593.247 403.478 592.5 403.499C591 403.634 588.87 403.814 586.23 404.114C580.95 404.684 573.69 405.734 565.725 407.234C557.76 408.734 550.605 410.429 545.46 411.734C542.895 412.394 540.825 412.994 539.46 413.399C538.731 413.658 537.977 413.838 537.21 413.939C537.903 413.59 538.626 413.304 539.37 413.084C540.78 412.589 542.82 411.899 545.37 411.164C550.485 409.664 557.64 407.879 565.635 406.349C572.407 405.054 579.241 404.102 586.11 403.499C588.765 403.274 590.91 403.184 592.41 403.154C593.181 403.101 593.954 403.126 594.72 403.229Z" fill="#263238"/>
<path d="M511.95 478.08C511.79 477.863 511.659 477.626 511.56 477.375L510.57 475.29C509.715 473.475 508.56 470.79 507.18 467.505C504.39 460.905 500.835 451.665 497.055 441.405C493.275 431.145 489.795 421.905 487.155 415.23C485.865 411.99 484.8 409.335 484.005 407.355L483.165 405.21C483.049 404.962 482.968 404.7 482.925 404.43C483.085 404.647 483.216 404.884 483.315 405.135L484.305 407.22C485.145 409.035 486.315 411.72 487.695 415.005C490.485 421.605 494.04 430.845 497.82 441.105C501.6 451.365 505.08 460.605 507.72 467.28C509.01 470.52 510.075 473.175 510.855 475.155C511.2 476.01 511.485 476.655 511.71 477.3C511.827 477.547 511.907 477.81 511.95 478.08Z" fill="#263238"/>
<path d="M588.57 453.375C588.33 453.513 588.073 453.619 587.805 453.69L585.585 454.44L577.38 457.095C570.45 459.345 560.88 462.555 550.38 466.095C539.88 469.635 530.265 472.785 523.29 474.885C519.81 475.95 516.975 476.76 515.01 477.3L512.745 477.885C512.482 477.969 512.21 478.024 511.935 478.05C512.175 477.912 512.432 477.806 512.7 477.735L514.92 476.985L523.125 474.33C530.055 472.08 539.625 468.87 550.125 465.33C560.625 461.79 570.225 458.64 577.2 456.54C580.695 455.475 583.515 454.665 585.495 454.125L587.76 453.54C588.023 453.456 588.295 453.401 588.57 453.375Z" fill="#263238"/>
<path d="M557.31 89.5209L549.585 92.2809L546.27 82.1859C540.18 63.5709 520.77 53.6859 502.935 59.9709C485.1 66.2559 475.605 86.6709 481.695 105.286L485.01 115.381L477.255 118.156C474.298 119.303 471.897 121.545 470.55 124.417C469.204 127.289 469.015 130.569 470.025 133.576L491.52 199.261C491.966 200.749 492.707 202.133 493.698 203.329C494.69 204.526 495.912 205.511 497.291 206.226C498.671 206.941 500.18 207.371 501.73 207.492C503.279 207.612 504.837 207.419 506.31 206.926L586.365 178.291C589.361 177.146 591.797 174.884 593.159 171.98C594.521 169.076 594.705 165.757 593.67 162.721L572.16 97.0359C571.702 95.5515 570.95 94.1747 569.949 92.9874C568.947 91.8 567.717 90.8267 566.331 90.1253C564.945 89.4239 563.432 89.0089 561.882 88.9051C560.332 88.8012 558.777 89.0107 557.31 89.5209ZM496.29 100.021C494.648 95.1807 494.943 89.8928 497.113 85.2652C499.282 80.6375 503.159 77.029 507.93 75.1959C510.286 74.3898 512.78 74.0666 515.264 74.2455C517.747 74.4243 520.169 75.1016 522.385 76.237C524.601 77.3723 526.566 78.9424 528.162 80.8536C529.758 82.7648 530.953 84.9779 531.675 87.3609L534.975 97.4559L499.59 110.116L496.29 100.021ZM541.29 158.311L546.78 175.081C546.881 175.417 546.848 175.779 546.689 176.092C546.53 176.405 546.256 176.644 545.925 176.761L538.23 179.506C537.924 179.591 537.597 179.554 537.317 179.403C537.037 179.252 536.827 178.998 536.73 178.696L531.195 162.001C528.143 161.835 525.215 160.74 522.802 158.863C520.389 156.987 518.607 154.418 517.695 151.501C516.39 147.644 516.628 143.432 518.359 139.747C520.09 136.062 523.179 133.19 526.98 131.731C528.857 131.09 530.843 130.833 532.821 130.976C534.799 131.119 536.728 131.658 538.494 132.562C540.259 133.467 541.824 134.717 543.095 136.239C544.367 137.761 545.319 139.523 545.895 141.421C546.86 144.384 546.94 147.565 546.125 150.573C545.309 153.581 543.634 156.285 541.305 158.356L541.29 158.311Z" fill="#003895"/>
<path d="M549.24 92.101C549.24 92.311 534.915 97.696 517.095 104.101C499.275 110.506 484.74 115.651 484.665 115.501C484.59 115.351 498.99 109.921 516.825 103.501C534.66 97.081 549.165 91.906 549.24 92.101Z" fill="#263238"/>
<path d="M566.25 94.8613C566.316 94.9915 566.371 95.127 566.415 95.2663C566.535 95.5663 566.67 95.9563 566.85 96.4363C567.24 97.5313 567.78 99.0463 568.455 100.936L574.215 117.706C576.615 124.816 579.48 133.246 582.66 142.606C584.16 147.301 585.93 152.191 587.58 157.336C588.463 159.988 588.845 162.78 588.705 165.571C588.578 167.023 588.165 168.435 587.49 169.726C586.769 171.013 585.806 172.149 584.655 173.071C582.337 174.763 579.765 176.074 577.035 176.956L569.31 179.731L554.685 184.966L529.92 193.786L513.195 199.666L508.695 201.166L507.495 201.556C507.367 201.613 507.23 201.649 507.09 201.661C507.09 201.661 507.21 201.661 507.465 201.481L508.635 201.016L513.135 199.321L529.77 193.201L554.49 184.201L569.085 178.921L576.81 176.131C579.463 175.285 581.96 174.014 584.205 172.366C585.276 171.511 586.173 170.456 586.845 169.261C587.48 168.067 587.863 166.755 587.97 165.406C588.108 162.717 587.742 160.026 586.89 157.471C585.27 152.371 583.56 147.436 582.015 142.741C578.895 133.366 576.015 124.906 573.735 117.796C571.455 110.686 569.535 104.971 568.215 100.951C567.585 98.9863 567.105 97.4563 566.715 96.3463L566.355 95.1463C566.31 95.0554 566.274 94.9599 566.25 94.8613Z" fill="#263238"/>
<path d="M524.01 74.1759C524.01 74.1759 523.215 73.7859 521.745 73.1859C519.65 72.3808 517.434 71.9345 515.19 71.8659C511.864 71.7518 508.555 72.3768 505.5 73.6959C501.785 75.3383 498.609 77.9949 496.335 81.3609C494.046 84.7171 492.818 88.6835 492.81 92.7459C492.841 96.0754 493.346 99.3836 494.31 102.571C495.09 105.301 495.9 107.476 496.44 108.991C496.759 109.76 497.019 110.553 497.22 111.361C496.794 110.641 496.437 109.883 496.155 109.096C495.54 107.596 494.655 105.466 493.785 102.721C492.717 99.5002 492.136 96.1381 492.06 92.7459C492.02 88.53 493.277 84.4037 495.66 80.9259C498.013 77.437 501.319 74.6982 505.185 73.0358C508.335 71.7096 511.748 71.1246 515.16 71.3258C517.452 71.4427 519.704 71.9764 521.805 72.9008C522.367 73.16 522.908 73.4608 523.425 73.8009C523.638 73.8946 523.836 74.0211 524.01 74.1759Z" fill="#263238"/>
<path d="M524.7 132.871C524.939 132.726 525.19 132.601 525.45 132.496C526.201 132.157 526.979 131.881 527.775 131.671C529.039 131.298 530.343 131.076 531.66 131.011C533.451 130.915 535.242 131.185 536.925 131.806C540.765 133.156 544.29 137.071 546.03 142.306C546.864 145.116 546.864 148.107 546.03 150.916C545.105 153.965 543.446 156.741 541.2 159.001L541.29 158.596C543.285 164.071 545.46 170.011 547.71 176.206L547.845 176.581L547.47 176.716L544.035 177.856L536.535 180.361L536.16 180.481L536.04 180.106C533.985 173.896 531.735 168.106 530.04 162.421L530.37 162.676C527.438 162.433 524.642 161.332 522.33 159.511C520.239 157.9 518.524 155.853 517.305 153.511C516.205 151.435 515.658 149.11 515.715 146.761C515.784 144.36 516.384 142.005 517.47 139.863C518.557 137.721 520.104 135.845 522 134.371C522.781 133.738 523.656 133.231 524.595 132.871C523.748 133.374 522.927 133.92 522.135 134.506C520.052 136.268 518.456 138.536 517.5 141.091C516.679 143.018 516.295 145.103 516.376 147.196C516.456 149.289 516.999 151.338 517.965 153.196C519.163 155.449 520.837 157.414 522.87 158.956C525.075 160.687 527.741 161.73 530.535 161.956H530.79L530.865 162.181C532.515 167.761 534.78 173.596 536.865 179.836L536.37 179.596L543.87 177.091L547.29 175.936L547.05 176.446C544.815 170.251 542.655 164.296 540.675 158.821V158.596L540.855 158.416C543.036 156.25 544.662 153.59 545.595 150.661C546.391 147.974 546.391 145.114 545.595 142.426C543.96 137.386 540.585 133.561 536.925 132.211C535.305 131.586 533.575 131.296 531.84 131.356C530.544 131.386 529.256 131.562 528 131.881C525.765 132.436 524.715 132.946 524.7 132.871Z" fill="#263238"/>
<path d="M478.335 565.98L328.5 565.29C319.847 565.242 311.567 561.762 305.478 555.614C299.389 549.466 295.989 541.153 296.025 532.5L297.615 156.885C297.633 152.598 298.495 148.357 300.153 144.403C301.811 140.45 304.232 136.862 307.277 133.844C310.322 130.827 313.932 128.439 317.901 126.818C321.869 125.197 326.118 124.373 330.405 124.395L480.225 125.085C488.878 125.129 497.16 128.605 503.252 134.75C509.343 140.895 512.747 149.207 512.715 157.86L511.125 533.46C511.107 537.748 510.245 541.991 508.588 545.946C506.93 549.901 504.51 553.491 501.465 556.511C498.421 559.531 494.811 561.921 490.842 563.546C486.873 565.171 482.624 565.998 478.335 565.98Z" fill="#455A64"/>
<path d="M480 138.001H450.96C450.013 138.018 449.078 138.222 448.209 138.601C447.341 138.98 446.555 139.526 445.898 140.209C445.24 140.891 444.724 141.697 444.377 142.579C444.031 143.461 443.862 144.403 443.88 145.351V150.616C443.898 151.562 443.729 152.503 443.383 153.385C443.036 154.266 442.52 155.071 441.862 155.752C441.204 156.433 440.419 156.978 439.55 157.355C438.682 157.733 437.747 157.935 436.8 157.951L380.19 157.696C378.275 157.645 376.459 156.836 375.14 155.446C373.821 154.057 373.107 152.201 373.155 150.286V145.021C373.204 143.108 372.492 141.254 371.176 139.865C369.86 138.476 368.048 137.666 366.135 137.611H355.92L330.495 137.491C324.448 137.455 318.633 139.816 314.323 144.059C310.013 148.301 307.56 154.078 307.5 160.126L306 526.756C305.986 529.756 306.564 532.729 307.699 535.506C308.834 538.283 310.505 540.809 312.617 542.94C314.729 545.071 317.239 546.766 320.006 547.927C322.772 549.087 325.74 549.692 328.74 549.706L478.26 550.396C481.262 550.409 484.238 549.832 487.016 548.696C489.795 547.56 492.323 545.887 494.456 543.774C496.588 541.661 498.283 539.149 499.445 536.381C500.607 533.613 501.211 530.643 501.225 527.641L502.725 161.011C502.761 154.946 500.388 149.116 496.126 144.801C491.865 140.486 486.064 138.04 480 138.001Z" fill="white"/>
<path d="M459.769 501.522L348.589 501.042C347.434 501.042 346.504 499.782 346.519 498.252L346.639 469.167C346.639 467.667 347.584 466.377 348.739 466.377L459.919 466.887C460.559 466.998 461.132 467.351 461.518 467.874C461.903 468.396 462.072 469.048 461.989 469.692L461.884 498.747C461.884 500.292 460.924 501.537 459.769 501.522Z" fill="#003895"/>
<path d="M388.791 487.059V479.584H390.145V485.923H393.437V487.059H388.791ZM396.999 487.168C396.452 487.168 395.978 487.048 395.576 486.807C395.175 486.566 394.863 486.229 394.642 485.796C394.423 485.363 394.313 484.857 394.313 484.277C394.313 483.698 394.423 483.191 394.642 482.755C394.863 482.32 395.175 481.982 395.576 481.741C395.978 481.5 396.452 481.379 396.999 481.379C397.547 481.379 398.021 481.5 398.423 481.741C398.824 481.982 399.135 482.32 399.354 482.755C399.575 483.191 399.686 483.698 399.686 484.277C399.686 484.857 399.575 485.363 399.354 485.796C399.135 486.229 398.824 486.566 398.423 486.807C398.021 487.048 397.547 487.168 396.999 487.168ZM397.007 486.11C397.304 486.11 397.552 486.028 397.751 485.865C397.951 485.7 398.099 485.478 398.197 485.201C398.296 484.923 398.346 484.614 398.346 484.274C398.346 483.931 398.296 483.62 398.197 483.343C398.099 483.063 397.951 482.841 397.751 482.675C397.552 482.51 397.304 482.427 397.007 482.427C396.703 482.427 396.45 482.51 396.248 482.675C396.048 482.841 395.898 483.063 395.799 483.343C395.701 483.62 395.653 483.931 395.653 484.274C395.653 484.614 395.701 484.923 395.799 485.201C395.898 485.478 396.048 485.7 396.248 485.865C396.45 486.028 396.703 486.11 397.007 486.11ZM403.245 489.278C402.771 489.278 402.363 489.213 402.023 489.084C401.682 488.958 401.408 488.787 401.201 488.573C400.995 488.359 400.851 488.122 400.771 487.862L401.961 487.573C402.014 487.683 402.092 487.791 402.194 487.898C402.296 488.008 402.434 488.098 402.607 488.168C402.782 488.241 403.002 488.278 403.267 488.278C403.642 488.278 403.952 488.186 404.198 488.004C404.444 487.824 404.566 487.527 404.566 487.113V486.051H404.501C404.433 486.187 404.333 486.327 404.202 486.471C404.073 486.615 403.901 486.735 403.687 486.832C403.475 486.93 403.209 486.978 402.888 486.978C402.457 486.978 402.066 486.877 401.716 486.675C401.368 486.471 401.091 486.167 400.884 485.763C400.679 485.357 400.577 484.848 400.577 484.237C400.577 483.622 400.679 483.102 400.884 482.679C401.091 482.253 401.369 481.931 401.72 481.712C402.07 481.49 402.461 481.379 402.891 481.379C403.22 481.379 403.49 481.435 403.701 481.547C403.916 481.657 404.086 481.789 404.212 481.945C404.339 482.098 404.435 482.243 404.501 482.38H404.574V481.452H405.877V487.15C405.877 487.629 405.762 488.026 405.534 488.34C405.305 488.654 404.992 488.888 404.596 489.044C404.199 489.2 403.749 489.278 403.245 489.278ZM403.256 485.942C403.536 485.942 403.774 485.874 403.972 485.737C404.169 485.601 404.318 485.405 404.421 485.15C404.523 484.894 404.574 484.588 404.574 484.23C404.574 483.877 404.523 483.568 404.421 483.303C404.321 483.038 404.172 482.832 403.975 482.686C403.781 482.538 403.541 482.463 403.256 482.463C402.962 482.463 402.716 482.54 402.519 482.693C402.322 482.847 402.173 483.057 402.074 483.325C401.974 483.59 401.924 483.892 401.924 484.23C401.924 484.573 401.974 484.874 402.074 485.131C402.176 485.387 402.325 485.586 402.523 485.73C402.722 485.871 402.967 485.942 403.256 485.942ZM407.231 487.059V481.452H408.552V487.059H407.231ZM407.895 480.657C407.686 480.657 407.506 480.587 407.355 480.449C407.204 480.308 407.129 480.138 407.129 479.941C407.129 479.742 407.204 479.573 407.355 479.434C407.506 479.293 407.686 479.222 407.895 479.222C408.107 479.222 408.287 479.293 408.435 479.434C408.586 479.573 408.662 479.742 408.662 479.941C408.662 480.138 408.586 480.308 408.435 480.449C408.287 480.587 408.107 480.657 407.895 480.657ZM411.232 483.774V487.059H409.911V481.452H411.174V482.405H411.239C411.368 482.091 411.574 481.842 411.856 481.657C412.141 481.472 412.492 481.379 412.911 481.379C413.298 481.379 413.635 481.462 413.922 481.628C414.211 481.793 414.435 482.033 414.594 482.347C414.754 482.661 414.833 483.041 414.831 483.489V487.059H413.51V483.693C413.51 483.319 413.412 483.026 413.218 482.814C413.025 482.602 412.759 482.496 412.418 482.496C412.187 482.496 411.981 482.547 411.801 482.65C411.624 482.749 411.484 482.894 411.382 483.084C411.282 483.274 411.232 483.504 411.232 483.774Z" fill="#E8E8E3"/>
<path d="M370.881 245.775L332.302 245.6L332.27 252.68L370.849 252.855L370.881 245.775Z" fill="#3265BB"/>
<path d="M483.975 289.245C484.278 289.214 484.576 289.143 484.86 289.035C485.275 288.872 485.636 288.596 485.902 288.238C486.167 287.88 486.326 287.454 486.36 287.01C486.36 284.625 486.36 281.145 486.36 276.675C486.36 274.44 486.36 271.935 486.36 269.175C486.36 268.5 486.36 267.795 486.36 267.09C486.458 266.406 486.309 265.709 485.94 265.125C485.734 264.844 485.465 264.616 485.155 264.457C484.846 264.298 484.503 264.214 484.155 264.21H481.815H460.14L334.68 263.745C334.359 263.739 334.041 263.811 333.754 263.955C333.467 264.099 333.219 264.309 333.03 264.57C332.668 265.156 332.53 265.854 332.64 266.535C332.64 268.035 332.64 269.535 332.64 271.035C332.64 274.035 332.64 277.035 332.64 280.035C332.64 281.535 332.64 283.035 332.64 284.535C332.578 285.233 332.578 285.936 332.64 286.635C332.719 286.934 332.866 287.212 333.068 287.446C333.271 287.68 333.525 287.864 333.81 287.985C334.106 288.102 334.422 288.158 334.74 288.15H342.375L375.69 288.33L432.09 288.675L470.115 288.975L480.45 289.095H483.135C483.75 289.095 484.05 289.095 484.05 289.095H483.135H480.45H470.115H432.09L375.69 288.915L342.375 288.78H334.74C334.32 288.797 333.901 288.725 333.51 288.57C333.115 288.401 332.764 288.145 332.483 287.82C332.203 287.495 332 287.11 331.89 286.695C331.803 286.301 331.773 285.897 331.8 285.495V284.385C331.8 282.885 331.8 281.385 331.8 279.885C331.8 276.885 331.8 273.885 331.8 270.885C331.8 269.385 331.8 267.885 331.8 266.385C331.772 265.985 331.772 265.584 331.8 265.185C331.856 264.743 332.027 264.325 332.295 263.97C332.554 263.608 332.897 263.313 333.294 263.112C333.691 262.911 334.13 262.809 334.575 262.815L460.035 263.505L481.71 263.655H484.05C484.463 263.655 484.869 263.755 485.234 263.945C485.6 264.136 485.914 264.412 486.15 264.75C486.573 265.402 486.744 266.186 486.63 266.955C486.63 267.66 486.63 268.365 486.63 269.04C486.63 271.77 486.63 274.275 486.63 276.54C486.63 281.04 486.525 284.49 486.495 286.89C486.459 287.351 486.291 287.792 486.012 288.162C485.733 288.531 485.354 288.813 484.92 288.975C484.636 289.151 484.309 289.244 483.975 289.245Z" fill="#E0E0E0"/>
<path d="M414.45 271.275H343.89V277.89H414.45V271.275Z" fill="#456AA8"/>
<path d="M370.618 310.363L332.039 310.188L332.006 317.267L370.586 317.442L370.618 310.363Z" fill="#3265BB"/>
<path d="M483 353.835C483.303 353.798 483.604 353.743 483.9 353.67C484.319 353.537 484.705 353.315 485.031 353.02C485.357 352.725 485.616 352.364 485.79 351.96C486.026 351.355 486.119 350.703 486.06 350.055C486.06 349.335 486.06 348.555 486.06 347.685C486.06 345.945 486.06 343.965 486.06 341.685V332.16C486.132 331.471 485.979 330.776 485.625 330.18C485.255 329.569 484.673 329.115 483.99 328.905C483.243 328.772 482.482 328.732 481.725 328.785H460.14L335.115 328.32C334.443 328.322 333.794 328.568 333.289 329.012C332.784 329.456 332.458 330.069 332.37 330.735C332.37 332.16 332.37 333.735 332.37 335.235C332.37 338.235 332.37 341.235 332.37 344.235C332.37 345.735 332.37 347.235 332.37 348.735C332.314 349.436 332.345 350.142 332.46 350.835C332.648 351.444 333.033 351.972 333.555 352.335C334.109 352.687 334.76 352.855 335.415 352.815H337.5H341.835L375.03 352.98L431.235 353.325L469.125 353.625L479.43 353.745H482.115H483.015H482.115H479.43H469.125H431.235L375 353.685L341.805 353.565H335.28C334.469 353.613 333.664 353.398 332.985 352.95C332.303 352.478 331.805 351.783 331.575 350.985C331.441 350.223 331.401 349.447 331.455 348.675C331.455 347.175 331.455 345.675 331.455 344.175C331.455 341.175 331.455 338.175 331.455 335.175C331.455 333.675 331.455 332.175 331.455 330.675C331.565 329.818 331.983 329.029 332.632 328.458C333.281 327.886 334.116 327.571 334.98 327.57L460.005 328.26L481.59 328.425C482.394 328.376 483.201 328.431 483.99 328.59C484.77 328.845 485.427 329.379 485.835 330.09C486.223 330.751 486.391 331.518 486.315 332.28C486.315 332.985 486.315 333.675 486.315 334.365C486.315 337.08 486.315 339.57 486.315 341.865C486.315 344.16 486.315 346.095 486.315 347.865C486.315 348.72 486.315 349.515 486.315 350.25C486.37 350.921 486.262 351.595 486 352.215C485.806 352.629 485.524 352.996 485.174 353.291C484.825 353.586 484.416 353.803 483.975 353.925C483.648 353.952 483.318 353.922 483 353.835Z" fill="#E0E0E0"/>
<path d="M370.328 377.757L331.748 377.582L331.716 384.662L370.296 384.837L370.328 377.757Z" fill="#3265BB"/>
<path d="M482.7 421.2C483.003 421.164 483.304 421.109 483.6 421.035C484.017 420.903 484.402 420.683 484.727 420.391C485.053 420.099 485.313 419.74 485.49 419.34C485.725 418.734 485.818 418.083 485.76 417.435C485.76 416.7 485.76 415.935 485.76 415.05C485.76 413.325 485.76 411.33 485.76 409.05V399.525C485.832 398.836 485.679 398.141 485.325 397.545C484.946 396.945 484.367 396.499 483.69 396.285C482.944 396.147 482.183 396.101 481.425 396.15H459.84L334.815 395.685C334.143 395.687 333.494 395.933 332.989 396.377C332.484 396.821 332.158 397.433 332.07 398.1C332.07 399.6 332.07 401.1 332.07 402.6C332.07 405.6 332.07 408.6 332.07 411.6C332.07 413.1 332.07 414.6 332.07 416.1C332.014 416.796 332.045 417.497 332.16 418.185C332.34 418.797 332.727 419.328 333.255 419.685C333.806 420.045 334.459 420.213 335.115 420.165H341.64L374.835 420.345L431.04 420.69L468.93 420.99L479.235 421.11H481.92C482.52 421.11 482.82 421.11 482.82 421.11C482.82 421.11 482.52 421.11 481.92 421.11H479.235H468.93H431.04L374.835 420.945L341.64 420.81H335.115C334.303 420.865 333.496 420.649 332.82 420.195C332.138 419.722 331.64 419.028 331.41 418.23C331.276 417.468 331.236 416.692 331.29 415.92C331.29 414.42 331.29 412.92 331.29 411.42C331.29 408.42 331.29 405.42 331.29 402.42C331.29 400.92 331.29 399.42 331.29 397.845C331.396 396.989 331.812 396.201 332.458 395.629C333.104 395.057 333.937 394.741 334.8 394.74L459.825 395.43L481.41 395.595C482.214 395.546 483.021 395.601 483.81 395.76C484.59 396.015 485.247 396.549 485.655 397.26C486.043 397.921 486.211 398.688 486.135 399.45C486.135 400.155 486.135 400.86 486.135 401.535C486.135 404.25 486.135 406.74 486.135 409.035C486.135 411.33 486.135 413.265 486.135 415.035C486.135 415.89 486.135 416.685 486.135 417.42C486.193 418.091 486.085 418.766 485.82 419.385C485.626 419.799 485.344 420.166 484.994 420.461C484.645 420.756 484.236 420.973 483.795 421.095C483.444 421.216 483.068 421.252 482.7 421.2Z" fill="#E0E0E0"/>
<path d="M412.944 337.734L342.385 337.414L342.355 344.029L412.914 344.349L412.944 337.734Z" fill="#456AA8"/>
<path d="M348.765 408.961C348.721 409.564 348.5 410.141 348.131 410.62C347.762 411.1 347.26 411.46 346.688 411.657C346.116 411.853 345.499 411.878 344.913 411.727C344.327 411.576 343.798 411.257 343.392 410.808C342.986 410.359 342.721 409.801 342.629 409.203C342.537 408.606 342.623 407.994 342.876 407.444C343.128 406.894 343.537 406.431 344.05 406.111C344.564 405.792 345.16 405.63 345.765 405.646C346.601 405.692 347.384 406.066 347.946 406.687C348.508 407.308 348.802 408.124 348.765 408.961Z" fill="#456AA8"/>
<path d="M358.32 409.004C358.349 409.427 358.292 409.852 358.15 410.251C358.009 410.651 357.786 411.017 357.497 411.327C357.208 411.637 356.858 411.884 356.469 412.053C356.081 412.222 355.661 412.31 355.237 412.31C354.814 412.31 354.394 412.222 354.005 412.053C353.617 411.884 353.267 411.637 352.978 411.327C352.689 411.017 352.466 410.651 352.325 410.251C352.183 409.852 352.125 409.427 352.155 409.004C352.125 408.582 352.183 408.157 352.325 407.758C352.466 407.358 352.689 406.992 352.978 406.682C353.267 406.372 353.617 406.124 354.005 405.955C354.394 405.786 354.814 405.699 355.237 405.699C355.661 405.699 356.081 405.786 356.469 405.955C356.858 406.124 357.208 406.372 357.497 406.682C357.786 406.992 358.009 407.358 358.15 407.758C358.292 408.157 358.349 408.582 358.32 409.004Z" fill="#456AA8"/>
<path d="M367.89 409.05C367.846 409.654 367.625 410.231 367.256 410.71C366.887 411.189 366.385 411.55 365.813 411.746C365.241 411.943 364.624 411.968 364.038 411.817C363.452 411.666 362.923 411.346 362.517 410.898C362.111 410.449 361.846 409.891 361.754 409.293C361.662 408.695 361.748 408.084 362.001 407.534C362.253 406.984 362.662 406.521 363.175 406.201C363.689 405.881 364.285 405.719 364.89 405.735C365.724 405.786 366.506 406.161 367.066 406.781C367.627 407.401 367.923 408.215 367.89 409.05Z" fill="#456AA8"/>
<path d="M377.445 409.095C377.401 409.699 377.18 410.276 376.811 410.755C376.442 411.234 375.94 411.595 375.368 411.791C374.796 411.988 374.179 412.013 373.593 411.862C373.007 411.711 372.478 411.391 372.072 410.943C371.666 410.494 371.401 409.936 371.309 409.338C371.217 408.74 371.303 408.128 371.556 407.579C371.808 407.029 372.217 406.566 372.731 406.246C373.244 405.926 373.84 405.764 374.445 405.78C375.279 405.831 376.061 406.206 376.622 406.826C377.182 407.445 377.478 408.26 377.445 409.095Z" fill="#456AA8"/>
<path d="M387 409.125C386.959 409.73 386.741 410.308 386.373 410.79C386.006 411.271 385.505 411.634 384.933 411.833C384.361 412.032 383.743 412.058 383.156 411.909C382.569 411.759 382.039 411.441 381.631 410.993C381.224 410.545 380.957 409.987 380.864 409.388C380.771 408.79 380.856 408.177 381.109 407.626C381.361 407.076 381.77 406.612 382.284 406.291C382.798 405.971 383.395 405.809 384 405.825C384.832 405.876 385.611 406.249 386.171 406.865C386.732 407.482 387.029 408.293 387 409.125Z" fill="#456AA8"/>
<path d="M396.57 409.169C396.529 409.77 396.314 410.346 395.949 410.826C395.585 411.306 395.089 411.67 394.521 411.871C393.953 412.073 393.339 412.104 392.754 411.961C392.168 411.818 391.638 411.507 391.227 411.066C390.816 410.625 390.543 410.074 390.442 409.48C390.34 408.886 390.415 408.275 390.656 407.723C390.897 407.171 391.294 406.701 391.798 406.372C392.303 406.042 392.893 405.868 393.495 405.869C394.34 405.9 395.138 406.265 395.715 406.884C396.291 407.502 396.599 408.324 396.57 409.169Z" fill="#456AA8"/>
<path d="M406.125 409.215C406.155 409.638 406.097 410.063 405.955 410.462C405.814 410.862 405.592 411.228 405.302 411.538C405.013 411.848 404.663 412.095 404.275 412.264C403.886 412.433 403.467 412.52 403.043 412.52C402.619 412.52 402.199 412.433 401.811 412.264C401.422 412.095 401.072 411.848 400.783 411.538C400.494 411.228 400.272 410.862 400.13 410.462C399.988 410.063 399.931 409.638 399.96 409.215C399.931 408.792 399.988 408.368 400.13 407.968C400.272 407.569 400.494 407.203 400.783 406.893C401.072 406.583 401.422 406.335 401.811 406.166C402.199 405.997 402.619 405.91 403.043 405.91C403.467 405.91 403.886 405.997 404.275 406.166C404.663 406.335 405.013 406.583 405.302 406.893C405.592 407.203 405.814 407.569 405.955 407.968C406.097 408.368 406.155 408.792 406.125 409.215Z" fill="#456AA8"/>
<path d="M415.68 409.261C415.639 409.862 415.423 410.438 415.059 410.918C414.695 411.398 414.199 411.761 413.631 411.963C413.063 412.164 412.449 412.196 411.863 412.053C411.278 411.909 410.747 411.598 410.337 411.157C409.926 410.717 409.653 410.165 409.551 409.571C409.45 408.977 409.524 408.367 409.765 407.815C410.006 407.262 410.404 406.793 410.908 406.463C411.413 406.134 412.003 405.959 412.605 405.961C413.45 405.992 414.248 406.357 414.824 406.976C415.401 407.594 415.709 408.416 415.68 409.261Z" fill="#456AA8"/>
<path d="M425.235 409.305C425.194 409.909 424.976 410.488 424.608 410.969C424.241 411.451 423.74 411.813 423.168 412.012C422.596 412.211 421.978 412.238 421.391 412.089C420.804 411.939 420.273 411.621 419.866 411.172C419.459 410.724 419.192 410.166 419.099 409.568C419.006 408.969 419.091 408.357 419.344 407.806C419.596 407.256 420.005 406.791 420.519 406.471C421.033 406.151 421.63 405.989 422.235 406.005C423.067 406.055 423.846 406.429 424.406 407.045C424.967 407.661 425.264 408.472 425.235 409.305Z" fill="#456AA8"/>
<path d="M411.66 192.766C412.702 192.307 413.586 191.552 414.203 190.594C414.819 189.637 415.14 188.519 415.125 187.381C415.164 186.641 415.052 185.901 414.795 185.205C414.539 184.51 414.144 183.874 413.634 183.336C413.123 182.799 412.509 182.371 411.828 182.078C411.147 181.786 410.414 181.635 409.673 181.635C408.932 181.635 408.198 181.786 407.517 182.078C406.837 182.371 406.222 182.799 405.712 183.336C405.202 183.874 404.807 184.51 404.55 185.205C404.294 185.901 404.182 186.641 404.22 187.381C404.198 188.531 404.516 189.662 405.135 190.631C405.755 191.6 406.647 192.364 407.7 192.826C399.3 194.086 399.675 203.206 399.675 203.206L419.535 203.296C419.535 203.296 420 194.011 411.66 192.766Z" fill="#002D77"/>
<path d="M443.932 209.177L373.147 208.855L373.109 217.315L443.893 217.637L443.932 209.177Z" fill="#3265BB"/>
<path d="M183.705 253.02H183L180.96 253.17C179.856 253.236 178.758 253.381 177.675 253.605C176.973 253.703 176.277 253.838 175.59 254.01L173.265 254.655C169.308 255.869 165.574 257.718 162.21 260.13C157.765 263.356 154.054 267.486 151.32 272.25C149.713 274.995 148.434 277.92 147.51 280.965C146.539 284.273 145.979 287.689 145.845 291.135C145.755 292.945 145.786 294.759 145.935 296.565C145.935 297.48 146.19 298.395 146.31 299.325C146.411 300.262 146.586 301.19 146.835 302.1C148.184 308.119 150.921 313.739 154.827 318.513C158.734 323.287 163.702 327.082 169.335 329.595C173.412 331.354 177.782 332.336 182.22 332.49C186.803 332.742 191.392 332.084 195.72 330.555L197.04 330.06H197.22L197.37 330.15L216.285 339.75L215.73 340.23C213.705 333.96 211.755 327.885 209.865 322.05V321.825L210.03 321.66C214.618 317.038 218.025 311.378 219.96 305.16C221.713 299.475 222.224 293.479 221.46 287.58C220.78 282.336 219.094 277.274 216.495 272.67C214.254 268.715 211.364 265.165 207.945 262.17C205.124 259.799 202.002 257.812 198.66 256.26C196.131 255.169 193.497 254.34 190.8 253.785L187.8 253.29L185.625 253.125L184.305 253.035H183.855C184.004 253.018 184.155 253.018 184.305 253.035H185.64L187.815 253.125L190.815 253.56C193.546 254.074 196.216 254.873 198.78 255.945C202.179 257.478 205.358 259.461 208.23 261.84C211.712 264.822 214.663 268.372 216.96 272.34C219.633 276.993 221.371 282.124 222.075 287.445C222.903 293.436 222.427 299.535 220.68 305.325C218.732 311.672 215.273 317.453 210.6 322.17L210.69 321.78C212.58 327.615 214.545 333.69 216.585 339.945L216.87 340.86L216.015 340.425L197.1 330.84H197.43L196.08 331.335C191.668 332.887 186.995 333.56 182.325 333.315C177.791 333.142 173.33 332.125 169.17 330.315C161.234 326.916 154.632 321.009 150.375 313.5C148.416 310.031 146.985 306.29 146.13 302.4C145.896 301.467 145.72 300.52 145.605 299.565C145.485 298.62 145.29 297.69 145.245 296.76C144.839 291.422 145.403 286.056 146.91 280.92C147.857 277.834 149.172 274.872 150.825 272.1C153.624 267.293 157.413 263.136 161.94 259.905C165.359 257.487 169.156 255.652 173.175 254.475L175.53 253.875C176.223 253.714 176.924 253.589 177.63 253.5C178.724 253.297 179.832 253.177 180.945 253.14L183 253.065C183.234 253.033 183.469 253.018 183.705 253.02Z" fill="#003895"/>
<path d="M192.255 287.999H189.48L183.48 279.57V274.035C183.48 274.035 179.19 273.764 179.7 281.009C180.21 288.254 179.7 286.41 179.7 286.41C179.7 286.41 170.595 286.41 169.845 287.235C169.095 288.06 169.05 296.849 168.945 301.754C168.887 302.937 169.227 304.105 169.909 305.072C170.591 306.04 171.577 306.751 172.71 307.094C173.027 307.182 173.355 307.228 173.685 307.23C175.965 307.23 187.56 305.384 187.56 305.384H192.345L192.255 287.999Z" fill="#003895"/>
<path d="M200.19 286.516L198.48 305.476H193.74V286.906L200.19 286.516Z" fill="#003895"/>
<path d="M256.725 672.51V659.685L233.73 659.52L233.535 678.915L234.96 679.02C241.305 679.425 267.24 680.025 271.5 678.705C276.24 677.235 256.725 672.51 256.725 672.51Z" fill="#003895"/>
<path d="M272.04 677.505C272.04 677.715 263.43 677.895 252.825 677.895C242.22 677.895 233.61 677.715 233.61 677.505C233.61 677.295 242.22 677.115 252.825 677.115C263.43 677.115 272.04 677.295 272.04 677.505Z" fill="#263238"/>
<path d="M257.13 675.136C256.935 675.031 257.13 674.356 257.595 673.636C258.06 672.916 258.69 672.616 258.84 672.766C258.99 672.916 258.675 673.486 258.225 674.101C257.775 674.716 257.325 675.241 257.13 675.136Z" fill="#263238"/>
<path d="M258.6 675.976C258.39 675.976 258.495 675.136 258.945 674.341C259.395 673.546 259.995 673.066 260.16 673.186C260.325 673.306 260.055 673.981 259.635 674.686C259.215 675.391 258.795 676.051 258.6 675.976Z" fill="#263238"/>
<path d="M240.54 677.446C240.45 677.446 240.105 677.176 239.61 676.606C239.006 675.874 238.333 675.201 237.6 674.596C236.879 674.021 236.021 673.643 235.11 673.501C234.405 673.411 233.955 673.501 233.91 673.411C233.865 673.321 234.3 673.006 235.125 672.946C236.214 672.923 237.276 673.284 238.125 673.966C238.92 674.615 239.591 675.403 240.105 676.291C240.45 676.951 240.63 677.386 240.54 677.446Z" fill="#263238"/>
<path d="M257.205 672.72C257.31 672.9 256.92 673.35 256.26 673.59C255.6 673.83 255.015 673.74 254.985 673.59C254.955 673.44 255.42 673.124 255.99 672.914C256.56 672.704 257.085 672.54 257.205 672.72Z" fill="#263238"/>
<path d="M256.845 671.475C256.845 671.7 256.245 671.88 255.465 671.895C254.685 671.91 254.07 671.73 254.085 671.52C254.1 671.31 254.715 671.115 255.465 671.1C256.215 671.085 256.815 671.265 256.845 671.475Z" fill="#263238"/>
<path d="M313.35 672.51V659.685L290.355 659.52L290.16 678.72L291.585 678.825C297.93 679.23 323.88 680.025 328.125 678.705C332.865 677.235 313.35 672.51 313.35 672.51Z" fill="#003895"/>
<path d="M328.665 677.535C328.665 677.745 320.07 677.925 309.45 677.925C298.83 677.925 290.25 677.745 290.25 677.535C290.25 677.325 298.845 677.145 309.45 677.145C320.055 677.145 328.665 677.325 328.665 677.535Z" fill="#263238"/>
<path d="M313.755 675.136C313.575 675.031 313.755 674.356 314.22 673.636C314.685 672.916 315.315 672.616 315.465 672.766C315.615 672.916 315.3 673.486 314.85 674.101C314.4 674.716 313.95 675.241 313.755 675.136Z" fill="#263238"/>
<path d="M315.225 675.976C315.03 675.976 315.12 675.136 315.585 674.341C316.05 673.546 316.635 673.066 316.8 673.186C316.965 673.306 316.68 673.981 316.26 674.686C315.84 675.391 315.435 676.051 315.225 675.976Z" fill="#263238"/>
<path d="M297.165 677.446C297.075 677.446 296.745 677.176 296.235 676.606C295.631 675.874 294.958 675.201 294.225 674.596C293.504 674.021 292.646 673.643 291.735 673.501C291.045 673.411 290.58 673.501 290.535 673.411C290.49 673.321 290.925 673.006 291.75 672.946C292.839 672.923 293.901 673.284 294.75 673.966C295.55 674.611 296.221 675.399 296.73 676.291C297.075 676.951 297.255 677.386 297.165 677.446Z" fill="#263238"/>
<path d="M313.83 672.72C313.935 672.9 313.545 673.35 312.885 673.59C312.225 673.83 311.64 673.74 311.61 673.59C311.58 673.44 312.045 673.124 312.615 672.914C313.185 672.704 313.71 672.54 313.83 672.72Z" fill="#263238"/>
<path d="M313.5 671.475C313.5 671.7 312.9 671.88 312.12 671.895C311.34 671.91 310.74 671.73 310.755 671.52C310.77 671.31 311.37 671.115 312.12 671.1C312.87 671.085 313.5 671.265 313.5 671.475Z" fill="#263238"/>
<path d="M398.07 291.661C397.47 291.046 395.985 291.346 395.985 291.346C396.134 290.483 396.134 289.6 395.985 288.736C395.715 287.896 393.825 288.061 393.825 288.061C393.738 287.354 393.738 286.639 393.825 285.931C393.84 285.775 393.806 285.617 393.728 285.48C393.651 285.343 393.532 285.234 393.39 285.166C392.496 284.802 391.535 284.628 390.57 284.656C389.415 283.831 394.095 277.276 395.835 275.176C397.575 273.076 397.26 271.441 395.715 271.441C394.65 271.441 389.19 277.741 387.51 279.856C385.83 281.971 381.375 287.851 381.225 283.156C381.075 278.461 379.185 274.921 378 274.321C376.815 273.721 375.555 275.131 376.2 276.436C376.767 277.919 377.12 279.474 377.25 281.056C377.413 282.316 377.357 283.595 377.085 284.836C376.588 287.146 375.911 289.413 375.06 291.616H374.94C374.94 291.616 342.21 323.011 339.84 325.246C337.725 327.256 295.185 322.861 286.65 321.961C283.75 321.537 280.821 321.336 277.89 321.361C274.185 321.526 273.525 322.051 269.835 322.096C260.516 322.2 251.219 323.017 242.025 324.541C237.862 325.249 233.973 327.087 230.783 329.854C227.593 332.62 225.224 336.21 223.935 340.231C215.34 367.081 195.87 430.636 192.435 466.336C189.839 471.043 187.496 475.885 185.415 480.841C183 487.411 183.585 487.636 184.395 487.786C186.585 488.191 189.075 476.401 190.005 479.251C190.935 482.101 185.28 493.306 187.575 493.636C190.575 494.056 192.96 481.636 193.245 480.646C193.53 479.656 195.015 479.971 194.745 480.901C194.31 482.221 190.095 496.216 193.035 496.666C194.655 496.906 194.835 493.951 194.835 493.951C194.835 493.951 197.835 480.556 199.2 480.826C200.565 481.096 199.11 489.001 198.42 491.641C197.73 494.281 198.69 495.616 200.1 494.971C201.06 494.521 203.355 486.496 203.985 483.886C204.615 481.276 206.19 474.046 208.305 478.231C210.42 482.416 213.63 484.846 214.95 484.906C215.247 484.872 215.528 484.75 215.755 484.555C215.982 484.36 216.146 484.101 216.225 483.812C216.304 483.524 216.295 483.218 216.199 482.934C216.102 482.651 215.923 482.402 215.685 482.221C214.55 481.113 213.575 479.85 212.79 478.471C212.09 477.397 211.583 476.21 211.29 474.961C210.685 472.473 210.334 469.93 210.24 467.371L210 465.871C213.36 449.236 223.035 400.411 237 369.226L242.73 381.016L245.22 389.746L229.95 427.441L295.08 426.586L285.36 389.176L297.165 350.176C309.93 350.461 342.705 350.941 348.165 348.466C355.035 345.466 390.57 300.586 390.57 300.586C392.886 298.787 395.104 296.864 397.215 294.826C397.215 294.826 399.375 293.011 398.07 291.661Z" fill="#FFBE9D"/>
<path d="M227.085 399.585C228.975 393.135 238.68 361.245 238.68 361.245C238.68 361.245 243.45 387.24 242.19 390.375C241.031 393.058 239.661 395.646 238.095 398.115C227.085 414.87 228.525 423.255 228.525 423.255L295.05 421.23C295.2 411.93 289.695 390.3 288.555 386.85C287.415 383.4 291.21 372.105 291.21 372.105C291.21 372.105 298.71 364.47 298.44 360.54C298.297 357.009 297.861 353.497 297.135 350.04L337.635 351.54L336.36 324.09L278.19 318.27C276.165 323.985 257.85 321.18 257.85 321.18C238.08 321.84 236.85 325.47 228.63 331.86C220.41 338.25 206.805 393.09 206.805 393.09L227.085 399.585Z" fill="#003895"/>
<path d="M266.415 393.09C265.262 393.296 264.088 393.357 262.92 393.27C260.745 393.27 257.76 393.12 254.475 392.79C251.19 392.46 248.22 391.995 246.105 391.575C244.939 391.425 243.796 391.133 242.7 390.705C243.873 390.706 245.043 390.816 246.195 391.035C248.325 391.305 251.28 391.68 254.55 392.01C257.82 392.34 260.79 392.565 262.935 392.715C264.104 392.73 265.27 392.855 266.415 393.09Z" fill="#263238"/>
<path d="M270.975 387.436C269.822 388.001 268.602 388.419 267.345 388.681C261.36 390.253 255.186 390.985 249 390.856C247.72 390.897 246.44 390.776 245.19 390.496C246.453 390.336 247.727 390.271 249 390.301C251.355 390.226 254.595 390.061 258.165 389.641C261.735 389.221 264.915 388.621 267.165 388.141C268.415 387.807 269.689 387.571 270.975 387.436Z" fill="#263238"/>
<path d="M293.355 362.205C293.324 363.349 293.168 364.486 292.89 365.595C292.5 367.68 291.9 370.53 291.135 373.65C290.37 376.77 289.635 379.65 288.975 381.6C288.709 382.716 288.317 383.798 287.805 384.825C287.888 383.685 288.1 382.558 288.435 381.465C289.005 379.125 289.65 376.425 290.37 373.47C291.09 370.515 291.78 367.815 292.35 365.475C292.553 364.349 292.89 363.251 293.355 362.205Z" fill="#263238"/>
<path d="M227.79 395.76C224.32 395.224 220.895 394.426 217.545 393.375C214.122 392.574 210.763 391.521 207.495 390.225C210.964 390.769 214.388 391.566 217.74 392.61C221.164 393.407 224.523 394.46 227.79 395.76Z" fill="#263238"/>
<path d="M297.855 349.711C297.289 349.808 296.711 349.808 296.145 349.711C294.578 349.55 293.039 349.182 291.57 348.616C289.116 347.694 286.882 346.269 285.012 344.432C283.142 342.595 281.676 340.388 280.71 337.951C279.642 335.271 279.185 332.385 279.375 329.506C279.442 327.131 280.152 324.819 281.43 322.816C282.329 321.467 283.671 320.474 285.225 320.011C285.64 319.896 286.069 319.841 286.5 319.846C286.8 319.846 286.95 319.846 286.95 319.846C286.95 319.846 286.32 319.846 285.315 320.251C283.889 320.778 282.681 321.765 281.88 323.056C279.84 326.266 279.27 332.131 281.445 337.606C282.457 340.188 284.042 342.506 286.08 344.386C287.75 345.925 289.673 347.163 291.765 348.046C293.728 348.822 295.77 349.38 297.855 349.711Z" fill="#263238"/>
<path d="M332.82 351C332.445 346.401 332.325 341.784 332.46 337.17C332.343 332.561 332.483 327.949 332.88 323.355C333.256 327.95 333.376 332.562 333.24 337.17C333.366 341.785 333.226 346.402 332.82 351Z" fill="#263238"/>
<path d="M277.8 319.951C277.965 316.606 278.31 312.826 278.31 312.826C278.31 312.826 286.59 311.911 287.085 303.361C287.58 294.811 287.085 275.086 287.085 275.086L272.085 267.406L255.435 280.501L258 323.251L273.27 324.226C274.437 324.259 275.57 323.827 276.419 323.025C277.268 322.224 277.765 321.118 277.8 319.951Z" fill="#FFBE9D"/>
<path d="M279.285 296.596C279.285 296.596 279.285 296.761 279.15 296.956C279.038 297.098 278.894 297.21 278.729 297.283C278.565 297.356 278.385 297.388 278.205 297.376C277.245 297.376 276.315 296.266 275.985 294.976C275.828 294.351 275.828 293.697 275.985 293.071C276.016 292.798 276.114 292.537 276.271 292.312C276.428 292.087 276.639 291.904 276.885 291.781C277.087 291.698 277.313 291.698 277.515 291.781C277.664 291.856 277.786 291.977 277.86 292.126C277.965 292.381 277.86 292.546 277.86 292.531C277.86 292.516 277.86 292.381 277.71 292.231C277.631 292.124 277.516 292.049 277.386 292.021C277.256 291.994 277.12 292.015 277.005 292.081C276.821 292.193 276.668 292.348 276.56 292.535C276.453 292.721 276.394 292.931 276.39 293.146C276.264 293.704 276.264 294.283 276.39 294.841C276.69 296.011 277.5 296.956 278.22 297.046C278.361 297.065 278.504 297.055 278.641 297.017C278.778 296.978 278.905 296.911 279.015 296.821C279.195 296.701 279.255 296.581 279.285 296.596Z" fill="#EB996E"/>
<path d="M292.23 270.465C291.075 266.535 286.89 264.585 283.08 263.505C277.275 261.855 271.005 261.135 265.335 263.22C259.665 265.305 252.855 268.965 252.855 275.22C249.51 274.95 247.59 277.875 246.27 281.505C245.426 283.717 244.92 286.043 244.77 288.405C244.35 296.595 242.055 307.905 236.745 313.905C233.745 317.25 229.59 319.56 227.88 323.73C226.38 327.345 227.16 331.635 225.765 335.295C224.52 338.52 221.775 340.815 219.765 343.62C217.717 346.803 216.512 350.453 216.263 354.229C216.014 358.005 216.728 361.782 218.34 365.205C219.963 368.541 222.249 371.512 225.057 373.936C227.865 376.36 231.138 378.187 234.675 379.305C241.682 381.437 249.153 381.51 256.2 379.515C261.489 378.251 266.422 375.805 270.63 372.36C274.936 368.844 277.893 363.948 279 358.5C280.065 352.38 278.355 346.155 277.08 340.065C273.09 320.82 274.23 319.815 279.27 301.95C279.39 301.635 279.45 301.305 279.54 300.99C279.63 300.675 279.675 300.525 279.735 300.285C279.878 299.579 279.954 298.861 279.96 298.14C279.224 298.414 278.425 298.472 277.657 298.307C276.889 298.143 276.184 297.762 275.625 297.21C275.065 296.622 274.674 295.893 274.494 295.101C274.315 294.309 274.353 293.483 274.605 292.71C274.959 291.866 275.486 291.105 276.153 290.477C276.82 289.849 277.611 289.368 278.475 289.065C280.14 288.375 281.925 288.015 283.56 287.25C287.025 285.6 289.425 282.18 291.06 278.595C292.404 276.111 292.819 273.228 292.23 270.465Z" fill="#263238"/>
<path d="M279.885 297C280.202 297.468 280.464 297.972 280.665 298.5C281.115 299.445 281.715 300.78 282.375 302.325L282.495 302.61H282.18L280.68 302.745C279.645 302.745 278.775 302.94 277.755 302.925C277.666 302.905 277.584 302.863 277.516 302.803C277.448 302.742 277.396 302.666 277.365 302.58C277.32 302.444 277.32 302.296 277.365 302.16C277.4 301.958 277.445 301.758 277.5 301.56L277.77 300.495C277.906 299.785 278.117 299.091 278.4 298.425C278.372 299.149 278.267 299.868 278.085 300.57L277.875 301.635C277.8 301.995 277.665 302.55 277.875 302.505C278.625 302.505 279.69 302.34 280.68 302.28L282.18 302.145L281.985 302.475C281.34 300.975 280.8 299.565 280.485 298.59C280.209 298.092 280.007 297.556 279.885 297Z" fill="#FD7401"/>
<path d="M228.525 423.255L295.05 421.23L324 534.24L318.675 663.87H283.5L287.805 537L262.08 458.325L266.04 668.895L230.49 669.42L226.755 471.495C226.59 465.99 224.79 453.585 225.465 448.125L228.525 423.255Z" fill="#263238"/>
<path d="M270.93 459.931C269.841 460 268.748 459.934 267.675 459.736C265.665 459.496 262.92 459.076 259.905 458.476C256.89 457.876 254.19 457.186 252.24 456.631C251.197 456.402 250.189 456.039 249.24 455.551C249.24 455.326 254.13 456.496 260.13 457.711C266.13 458.926 270.96 459.706 270.93 459.931Z" fill="#455A64"/>
<path d="M318.315 656.761C318.315 656.971 310.35 657.151 300.525 657.151C290.7 657.151 282.72 656.971 282.72 656.761C282.72 656.551 290.685 656.371 300.525 656.371C310.365 656.371 318.315 656.536 318.315 656.761Z" fill="#455A64"/>
<path d="M265.725 663.421C265.725 663.646 257.985 663.811 248.445 663.811C238.905 663.811 231.18 663.646 231.18 663.421C231.18 663.196 238.92 663.031 248.445 663.031C257.97 663.031 265.725 663.211 265.725 663.421Z" fill="#455A64"/>
<path d="M261.135 662.88C260.925 662.88 259.995 616.875 259.05 560.13C258.105 503.385 257.55 457.35 257.745 457.35C257.94 457.35 258.9 503.34 259.83 560.115C260.76 616.89 261.36 662.88 261.135 662.88Z" fill="#455A64"/>
<path d="M313.59 656.761C313.574 656.556 313.574 656.35 313.59 656.146V654.346C313.59 652.726 313.71 650.401 313.8 647.446C314.01 641.446 314.31 632.731 314.685 622.051C315.495 600.571 316.635 570.961 317.88 538.276C317.88 537.961 317.88 537.661 317.88 537.391V537.496C310.005 505.996 302.88 477.406 297.705 456.721L291.705 432.256C291.015 429.391 290.49 427.156 290.115 425.596C289.935 424.861 289.815 424.291 289.71 423.856C289.652 423.661 289.616 423.459 289.605 423.256C289.683 423.445 289.743 423.641 289.785 423.841C289.905 424.261 290.055 424.831 290.265 425.551C290.67 427.051 291.255 429.331 292.005 432.181C293.505 437.971 295.62 446.311 298.26 456.586C303.48 477.256 310.68 505.771 318.66 537.316V537.421C318.66 537.691 318.66 538.006 318.66 538.306C317.325 570.991 316.11 600.586 315.225 622.066C314.76 632.761 314.37 641.416 314.1 647.446C313.95 650.446 313.83 652.726 313.755 654.346C313.755 655.111 313.665 655.711 313.65 656.146C313.652 656.352 313.632 656.559 313.59 656.761Z" fill="#455A64"/>
<path d="M302.115 534.75C299.589 535.581 296.986 536.159 294.345 536.475C291.105 537.03 288.345 537.42 287.1 537.48V537.18C287.505 537.3 287.715 537.375 287.715 537.435C287.715 537.495 287.46 537.435 287.04 537.435H286.14L287.04 537.165C288.21 536.82 290.97 536.25 294.21 535.665C296.809 535.101 299.457 534.795 302.115 534.75Z" fill="#455A64"/>
<path d="M301.5 539.055C299.16 539.162 296.816 539.057 294.495 538.74C292.152 538.692 289.818 538.436 287.52 537.975C292.208 537.593 296.927 537.957 301.5 539.055Z" fill="#455A64"/>
<path opacity="0.2" d="M228.24 425.64C229.028 426.652 230.02 427.486 231.152 428.089C232.284 428.691 233.53 429.048 234.81 429.135C237.489 429.453 240.199 429.402 242.865 428.985C260.04 427.08 278.235 425.325 295.05 421.23C273.285 422.445 250.29 422.04 228.525 423.255L228.3 425.115" fill="black"/>
<g opacity="0.2">
<path d="M250.665 456.314L262.935 503.924L262.08 458.324L250.665 456.314Z" fill="black"/>
</g>
</svg>
