<svg width="136" height="71" viewBox="0 0 136 71" fill="none" xmlns="http://www.w3.org/2000/svg">
<path fill-rule="evenodd" clip-rule="evenodd" d="M46.8703 53.5026C48.1827 53.526 48.4952 53.5573 49.1357 53.7216C49.5419 53.8311 50.2137 54.0657 50.62 54.2378C51.0262 54.4177 51.698 54.7775 52.1042 55.0435C52.5104 55.3016 52.9244 55.5988 53.026 55.6848C53.1431 55.8022 53.1978 55.943 53.1978 56.1307C53.1978 56.3497 53.0182 56.6626 52.2604 57.7341C51.7448 58.4694 51.2449 59.1264 51.1512 59.2046C51.0496 59.2828 50.8934 59.3454 50.7918 59.3376C50.6981 59.3376 50.4559 59.2359 50.245 59.1108C50.0419 58.9778 49.581 58.7353 49.2138 58.5632C48.8467 58.3912 48.253 58.1722 47.8859 58.0783C47.3937 57.9453 46.9953 57.8984 46.3235 57.8984C45.8001 57.8906 45.3002 57.9297 45.1283 57.9923C44.9721 58.0392 44.769 58.18 44.683 58.3051C44.5893 58.4224 44.519 58.6023 44.519 58.7119C44.519 58.8214 44.6049 58.9856 44.6987 59.0795C44.8002 59.1733 45.0346 59.3219 45.2299 59.408C45.4252 59.494 45.8939 59.6505 46.2844 59.7678C46.675 59.8773 47.3 60.0181 47.6906 60.0885C48.0811 60.1511 48.7842 60.3075 49.2529 60.4405C49.7216 60.5656 50.4247 60.8315 50.8152 61.0193C51.2058 61.207 51.7214 61.5199 51.9636 61.7154C52.2135 61.9188 52.5729 62.2786 52.7682 62.5289C52.9635 62.7713 53.2291 63.1859 53.3619 63.444C53.4869 63.7021 53.6509 64.2105 53.7134 64.5782C53.7993 65.0318 53.8228 65.4777 53.7915 65.9861C53.7681 66.3928 53.6978 66.9403 53.6275 67.1984C53.565 67.4566 53.3931 67.8946 53.2603 68.1762C53.0963 68.5203 52.8307 68.8723 52.4245 69.279C51.9401 69.764 51.698 69.9439 51.0887 70.2333C50.6824 70.4288 50.12 70.64 49.8388 70.7104C49.5576 70.773 49.0654 70.8668 48.7451 70.9138C48.4249 70.9607 47.6984 70.9998 47.1437 70.9998C46.5891 70.9998 45.7611 70.9451 45.308 70.8825C44.8549 70.8121 44.1753 70.6635 43.7847 70.554C43.3941 70.4445 42.7145 70.1785 42.2614 69.9673C41.8083 69.7483 41.16 69.3885 40.8162 69.1617C40.4725 68.9271 40.0585 68.622 39.9023 68.4812C39.707 68.3013 39.6132 68.1449 39.6054 68.0041C39.6054 67.8477 39.9023 67.3549 40.6053 66.3381C41.3474 65.2587 41.6599 64.8676 41.8318 64.7972C42.0349 64.719 42.1052 64.7268 42.3786 64.891C42.5504 64.9849 43.0816 65.2743 43.5503 65.5246C44.0191 65.7671 44.7221 66.0799 45.1127 66.2051C45.5033 66.3381 46.1126 66.4788 46.4797 66.5336C46.9563 66.5962 47.3 66.5962 47.714 66.5414C48.0187 66.4945 48.417 66.385 48.5889 66.2989C48.7608 66.2129 48.9561 66.0643 49.0186 65.9704C49.081 65.8688 49.1357 65.6419 49.1357 65.462C49.1357 65.2039 49.0967 65.0944 48.9561 64.9927C48.8545 64.9145 48.5655 64.7893 48.3155 64.719C48.0577 64.6407 47.2297 64.4765 46.4797 64.3435C45.7298 64.2105 44.7768 64.015 44.3706 63.9055C43.9644 63.8038 43.2301 63.5222 42.7457 63.2876C42.0583 62.9512 41.7458 62.7401 41.3006 62.3177C40.9256 61.9631 40.6418 61.6059 40.4491 61.2461C40.2929 60.9489 40.1054 60.4796 40.0273 60.198C39.9413 59.8695 39.8945 59.3923 39.8945 58.8292C39.9023 58.2973 39.9491 57.7576 40.0273 57.4213C40.1054 57.124 40.2929 56.6313 40.4491 56.3262C40.6288 55.9821 40.9334 55.5753 41.2849 55.2312C41.5896 54.9339 42.0271 54.5663 42.2614 54.4255C42.4958 54.2926 42.9879 54.0736 43.3551 53.9406C43.7222 53.8154 44.3159 53.659 44.683 53.5964C45.1674 53.5104 45.7611 53.4869 46.8703 53.5026V53.5026ZM11.1708 53.7059L11.4051 53.9249C11.5926 54.0892 12.3503 55.7943 15.0766 62.1534C17.3967 67.5661 18.4982 70.2176 18.4669 70.3271C18.4435 70.4132 18.3654 70.5305 18.2872 70.5853C18.1935 70.6557 17.5998 70.6791 13.5924 70.6791L13.3268 70.4288C13.1549 70.2646 12.9362 69.8813 12.7175 69.3964C12.4909 68.8723 12.3113 68.5751 12.1707 68.4812C11.9676 68.3404 11.7566 68.3326 6.48373 68.3326L6.265 68.5516C6.14001 68.6689 5.89004 69.0991 5.70256 69.5059C5.52289 69.9126 5.27291 70.3428 4.92138 70.6791H2.61693C0.414021 70.6791 0.304657 70.6713 0.156234 70.5227C0.0703055 70.4367 0 70.3193 0 70.2724C0 70.2176 1.49204 66.6666 3.31998 62.3881C5.14792 58.1096 6.71808 54.4568 6.7962 54.2769C6.88213 54.0892 7.04617 53.8858 7.17116 53.8233C7.33521 53.7372 7.77266 53.7138 11.1708 53.7059V53.7059ZM8.40541 62.5836C8.08513 63.358 7.85078 64.0385 7.88203 64.101C7.90546 64.1636 8.00701 64.2418 8.10075 64.2809C8.20231 64.3122 8.71788 64.3435 9.25689 64.3435C9.7959 64.3435 10.3193 64.3044 10.4286 64.2653C10.538 64.2262 10.6239 64.1245 10.6239 64.0541C10.6239 63.9759 10.3505 63.2641 10.0224 62.4663C9.69435 61.6685 9.38969 60.9723 9.34282 60.9176C9.29595 60.8628 9.23345 60.8159 9.1944 60.8237C9.16315 60.8237 9.10066 60.9019 9.0616 61.0036C9.01473 61.0975 8.72569 61.8093 8.40541 62.5836V62.5836Z" fill="#003895"/>
<path d="M126.042 53.7367C126.433 53.6429 127.058 53.5255 127.448 53.4864C127.839 53.4473 128.308 53.4082 128.503 53.4004C128.698 53.4004 129.245 53.4317 129.714 53.4708C130.182 53.5177 130.87 53.6272 131.237 53.7133C131.604 53.7993 132.198 53.9948 132.565 54.1513C132.932 54.2999 133.479 54.5658 133.776 54.7379C134.073 54.9178 134.526 55.1994 134.768 55.3793C135.01 55.5592 135.252 55.786 135.299 55.8955C135.354 56.005 135.362 56.1771 135.33 56.2866C135.299 56.3961 134.854 57.0766 134.338 57.8119C133.831 58.5393 133.354 59.1885 133.276 59.2432C133.206 59.298 133.049 59.3371 132.917 59.3371C132.784 59.3371 132.417 59.1807 132.096 58.9929C131.776 58.813 131.245 58.5471 130.925 58.422C130.604 58.289 130.073 58.1169 129.753 58.0465C129.393 57.9605 128.847 57.9135 128.347 57.9135C127.683 57.9135 127.456 57.9448 127.152 58.0778C126.941 58.1717 126.745 58.3281 126.683 58.4454C126.613 58.5862 126.613 58.7035 126.667 58.8521C126.722 58.9851 126.894 59.1416 127.136 59.2745C127.355 59.3918 127.745 59.5561 128.019 59.6421C128.284 59.736 129.112 59.9315 129.847 60.0802C130.589 60.2288 131.55 60.4634 131.979 60.6042C132.409 60.745 133.026 61.0188 133.346 61.2065C133.667 61.402 134.135 61.754 134.393 61.9887C134.643 62.2311 134.979 62.6222 135.143 62.8569C135.307 63.0915 135.51 63.4592 135.596 63.6782C135.682 63.8894 135.791 64.3508 135.846 64.695C135.908 65.0861 135.932 65.6101 135.901 66.1029C135.877 66.5331 135.799 67.0806 135.721 67.3153C135.651 67.5499 135.471 67.9879 135.315 68.293C135.151 68.598 134.823 69.0439 134.557 69.3176C134.299 69.5758 133.862 69.9199 133.581 70.0764C133.299 70.2328 132.823 70.444 132.526 70.5457C132.229 70.6552 131.628 70.796 131.198 70.8664C130.675 70.9602 130.003 70.9993 129.167 70.9993C128.401 70.9993 127.644 70.9524 127.214 70.8742C126.823 70.8038 126.261 70.6865 125.964 70.6004C125.667 70.5144 125.191 70.3579 124.91 70.2406C124.628 70.1311 124.207 69.9356 123.972 69.8182C123.738 69.7009 123.23 69.388 122.839 69.1299C122.449 68.864 122.043 68.5668 121.918 68.4573C121.777 68.3165 121.707 68.1757 121.707 67.9958C121.699 67.8002 121.902 67.4482 122.605 66.4158C123.105 65.6805 123.597 65.0079 123.707 64.9062C123.808 64.8123 123.98 64.7341 124.089 64.7341C124.199 64.7341 124.613 64.9218 125.003 65.1487C125.402 65.3833 126.011 65.6962 126.355 65.8448C126.698 66.0012 127.23 66.2046 127.526 66.2985C127.901 66.4158 128.355 66.4862 128.972 66.5096C129.651 66.5409 129.972 66.5253 130.3 66.4314C130.604 66.3454 130.807 66.2281 130.979 66.0325C131.159 65.837 131.237 65.6727 131.237 65.4928C131.237 65.3364 131.175 65.1799 131.065 65.0704C130.964 64.9766 130.761 64.8514 130.612 64.7889C130.464 64.7263 129.987 64.6168 129.558 64.5386C129.128 64.4682 128.269 64.3117 127.644 64.1866C127.019 64.0614 126.198 63.8502 125.808 63.7173C125.417 63.5765 124.824 63.3184 124.48 63.1463C124.042 62.9195 123.691 62.6535 123.308 62.2703C123.004 61.9652 122.652 61.5115 122.511 61.2534C122.379 60.9953 122.207 60.5729 122.129 60.3148C122.019 59.9628 121.988 59.5952 121.988 58.8287C121.988 58.1169 122.035 57.6632 122.129 57.3034C122.207 57.0219 122.371 56.5995 122.496 56.3648C122.621 56.1302 122.871 55.7547 123.058 55.5279C123.238 55.3089 123.558 54.9882 123.777 54.8161C123.988 54.644 124.433 54.3703 124.753 54.2139C125.074 54.0496 125.652 53.8384 126.042 53.7367Z" fill="#EBB70C"/>
<path fill-rule="evenodd" clip-rule="evenodd" d="M68.1965 0.00199325C69.0714 0.0254585 69.462 0.072389 69.9151 0.205359C70.2353 0.29922 70.7431 0.486942 71.0478 0.627733C71.3524 0.768524 71.8211 1.03446 72.1023 1.22219C72.3836 1.40991 72.8601 1.80882 73.1647 2.11387C73.4694 2.41891 73.86 2.8804 74.0318 3.13851C74.2037 3.39663 74.4537 3.82683 74.5943 4.10059C74.7271 4.36653 74.9302 4.89059 75.0474 5.26603C75.2427 5.89959 75.2583 6.05603 75.2583 7.32315C75.2583 8.59027 75.2427 8.74671 75.0474 9.38027C74.9302 9.75571 74.7271 10.2798 74.5943 10.5457C74.4537 10.8195 74.2037 11.2497 74.0318 11.5078C73.86 11.7659 73.4694 12.2274 73.1647 12.5324C72.8601 12.8375 72.3836 13.2364 72.1023 13.4241C71.8211 13.6118 71.3524 13.8778 71.0478 14.0186C70.7431 14.1594 70.2197 14.3549 69.876 14.4566C69.337 14.613 69.0792 14.6365 67.9621 14.6365C66.8607 14.6365 66.5873 14.613 66.0639 14.4566C65.7358 14.3627 65.2437 14.1828 64.9781 14.0655C64.7046 13.9403 64.2203 13.6744 63.9 13.471C63.5798 13.2599 63.0486 12.8218 62.7283 12.4933C62.408 12.1648 61.9784 11.6329 61.7753 11.3122C61.5721 10.9915 61.2909 10.4597 61.1581 10.139C61.0253 9.81829 60.8457 9.23166 60.7675 8.84839C60.6816 8.42602 60.6191 7.81592 60.6191 7.32315C60.6191 6.83038 60.6816 6.22028 60.7675 5.79791C60.8457 5.40682 61.0253 4.82801 61.1581 4.50732C61.2909 4.18663 61.5721 3.65475 61.7753 3.33406C61.9705 3.01337 62.4002 2.48149 62.7283 2.15297C63.0486 1.82446 63.5407 1.40991 63.8219 1.22219C64.1031 1.03446 64.5718 0.768524 64.8765 0.627733C65.1812 0.486942 65.6342 0.314863 65.892 0.244467C66.1498 0.16625 66.517 0.0802107 66.7123 0.041102C66.9076 0.00981499 67.5715 -0.0058285 68.1965 0.00199325V0.00199325ZM54.1744 14.089C54.4166 14.1124 54.8306 14.2532 55.2681 14.4644C55.6587 14.6521 56.268 14.9885 56.6351 15.2153C57.0023 15.4421 58.0178 16.1304 58.9005 16.7484C59.7833 17.3663 60.9238 18.125 61.4393 18.4379C61.9549 18.7507 62.7283 19.1731 63.1579 19.3765C63.5876 19.5798 64.2516 19.8536 64.6422 19.9866C65.0327 20.1117 65.6421 20.2838 66.0092 20.3542C66.4519 20.448 67.0247 20.495 67.7278 20.495C68.4621 20.495 68.9855 20.4559 69.4464 20.3542C69.8135 20.276 70.4619 20.0882 70.8915 19.9396C71.3212 19.791 72.0945 19.4703 72.6101 19.22C73.1257 18.9776 73.899 18.5708 74.3287 18.3127C74.7583 18.0624 76.0082 17.2881 77.1018 16.5919C78.1955 15.8958 79.4063 15.1449 79.7969 14.9259C80.1875 14.7147 80.7265 14.4409 81.0077 14.3236C81.3202 14.1906 81.6639 14.1046 81.9061 14.1046C82.1873 14.0968 82.3982 14.1594 82.6716 14.308C82.906 14.4409 83.1091 14.6365 83.2341 14.8555C83.3747 15.098 83.4293 15.3013 83.4293 15.6377C83.4293 15.888 83.3747 16.193 83.3044 16.3416C83.234 16.4746 79.9922 19.791 76.1019 23.6941C72.2039 27.6049 68.8917 30.8666 68.7433 30.9448C68.5949 31.023 68.3449 31.1091 68.1965 31.1404C68.0481 31.1717 67.7668 31.1482 67.5715 31.1013C67.2513 31.0152 66.6498 30.4442 59.9629 23.7645C55.643 19.439 52.6668 16.412 52.6043 16.2556C52.5418 16.1226 52.4949 15.841 52.4949 15.6377C52.4949 15.403 52.5652 15.1293 52.6746 14.9181C52.7683 14.7225 52.9558 14.4879 53.0808 14.3862C53.2058 14.2923 53.4245 14.175 53.5495 14.1281C53.6745 14.089 53.9635 14.0733 54.1744 14.089V14.089ZM40.2696 14.6756C40.6367 14.6756 40.8398 14.7225 41.207 14.9024C41.496 15.0432 41.8554 15.3248 42.1522 15.6298C42.4334 15.9192 42.7381 16.3494 42.9021 16.6701C43.0584 16.9674 43.3083 17.5696 43.4646 17.9998C43.6208 18.43 43.9333 19.1496 44.1598 19.6033C44.3864 20.057 44.7848 20.7453 45.0347 21.1285C45.2925 21.5118 45.7612 22.1454 46.0893 22.5286C46.4096 22.9197 46.9408 23.4594 47.2611 23.7332C47.5814 24.0069 48.0579 24.3824 48.3157 24.5545C48.5734 24.7265 49.0968 25.0238 49.4874 25.2115C49.8858 25.3992 50.4951 25.6104 50.8935 25.6964C51.2841 25.7825 51.8778 25.892 52.2215 25.9389C52.5652 25.9937 53.1824 26.1345 53.5886 26.2674C53.9948 26.4004 54.6822 26.6663 55.1119 26.8697C55.5415 27.0731 56.1899 27.425 56.557 27.6519C56.9242 27.8865 57.4632 28.2541 57.7678 28.481C58.0725 28.7078 58.6506 29.1928 59.0568 29.5604C59.463 29.928 60.0957 30.5616 60.4629 30.9839C60.83 31.3985 61.4237 32.1416 61.7909 32.6265C62.158 33.1115 62.7048 33.9249 63.0095 34.4411C63.322 34.9496 63.7985 35.8256 64.0797 36.3809C64.3531 36.9363 64.7828 37.8905 65.0171 38.4928C65.2593 39.0951 65.5171 39.8147 65.5952 40.0963C65.6889 40.4483 65.728 40.8784 65.728 41.5042C65.728 42.2629 65.6967 42.4819 65.5405 42.873C65.4389 43.1311 65.228 43.4753 65.0796 43.6473C64.9234 43.8116 64.6656 44.015 64.5094 44.0932C64.3141 44.1949 64.0407 44.2418 63.7282 44.2418C63.3532 44.2418 63.1345 44.1949 62.8064 44.0306C62.572 43.9133 62.1815 43.6239 61.9471 43.3814C61.7128 43.1389 61.4237 42.7713 61.3065 42.5601C61.1894 42.3411 60.9238 41.7076 60.7129 41.1522C60.5019 40.5969 60.1348 39.7521 59.8926 39.275C59.6505 38.7979 59.2599 38.1174 59.0099 37.7497C58.7677 37.3821 58.3381 36.8033 58.0491 36.467C57.7678 36.1228 57.2913 35.6222 56.9867 35.3485C56.682 35.0669 56.1039 34.621 55.6977 34.3473C55.2915 34.0735 54.7447 33.7607 54.4869 33.6433C54.2291 33.5338 53.7917 33.3696 53.5104 33.2835C53.2292 33.1975 52.6902 33.0958 52.2996 33.0567C51.909 33.0176 51.3154 32.9081 50.9716 32.822C50.6279 32.7282 49.9952 32.517 49.5655 32.3449C49.1359 32.1728 48.4172 31.8209 47.9641 31.5627C47.511 31.3124 46.7689 30.8197 46.308 30.4755C45.8393 30.1314 45.0738 29.4743 44.5973 29.005C44.1208 28.5435 43.4568 27.8474 43.1365 27.4641C42.8084 27.0809 42.3475 26.4943 42.1131 26.1736C41.8788 25.8529 41.4179 25.1646 41.0976 24.6483C40.7773 24.1321 40.2618 23.2013 39.9493 22.5756C39.6446 21.9498 39.1916 20.9486 38.9572 20.3464C38.7229 19.7441 38.4885 19.0949 38.4338 18.8993C38.387 18.7038 38.3167 18.2814 38.2776 17.9607C38.2463 17.6322 38.2463 17.1316 38.2854 16.8266C38.3245 16.5293 38.4573 16.0679 38.5744 15.8176C38.6916 15.5673 38.9103 15.2466 39.0588 15.1214C39.2072 14.9885 39.4415 14.8398 39.5665 14.7851C39.6915 14.7303 40.0118 14.6834 40.2696 14.6756V14.6756ZM95.6547 14.6756C95.9359 14.6756 96.2484 14.7382 96.4359 14.8242C96.6077 14.9024 96.8655 15.098 97.0139 15.27C97.1623 15.4343 97.3498 15.7315 97.4279 15.9271C97.5139 16.1226 97.6154 16.5293 97.6545 16.8266C97.7092 17.1942 97.7014 17.5931 97.6467 18.0389C97.5998 18.4066 97.4436 19.0714 97.2873 19.5251C97.1311 19.9787 96.7952 20.8235 96.5374 21.4023C96.2874 21.9811 95.8422 22.8806 95.5609 23.3968C95.2797 23.9131 94.7954 24.7187 94.4829 25.1958C94.1783 25.673 93.6627 26.3926 93.3424 26.7993C93.0299 27.206 92.3816 27.9413 91.9051 28.434C91.4364 28.9268 90.7333 29.5917 90.3427 29.9124C89.9521 30.233 89.3428 30.7024 88.9757 30.9448C88.6085 31.1951 88.0148 31.5549 87.6477 31.7505C87.2805 31.946 86.6478 32.2354 86.2416 32.3997C85.8354 32.5561 85.2339 32.7517 84.9136 32.8299C84.5933 32.9159 84.0152 33.0176 83.6246 33.0567C83.2341 33.0958 82.6716 33.2053 82.3748 33.2992C82.0779 33.393 81.5467 33.6042 81.203 33.7763C80.8593 33.9484 80.3828 34.2221 80.1484 34.3864C79.9141 34.5428 79.461 34.9026 79.1407 35.1764C78.8204 35.4502 78.3127 35.9586 78.0158 36.3027C77.719 36.6469 77.219 37.3117 76.9066 37.7889C76.5863 38.266 76.1332 39.056 75.8988 39.5487C75.6645 40.0415 75.3442 40.8002 75.188 41.2304C75.0317 41.6606 74.7896 42.2238 74.6568 42.4819C74.5162 42.74 74.2115 43.1468 73.9772 43.3892C73.7272 43.6473 73.3678 43.9211 73.1179 44.0384C72.8054 44.187 72.5632 44.2418 72.2195 44.2418C71.9383 44.2418 71.6258 44.1792 71.4384 44.0932C71.2665 44.015 71.0087 43.8194 70.8603 43.6473C70.7119 43.4831 70.5322 43.2015 70.4541 43.0294C70.376 42.8573 70.2744 42.4741 70.2197 42.169C70.165 41.8483 70.1494 41.3947 70.1807 41.074C70.2119 40.7689 70.29 40.3153 70.3525 40.0572C70.4228 39.799 70.6494 39.1498 70.8603 38.6101C71.0634 38.0704 71.5165 37.0693 71.8602 36.3809C72.2039 35.6926 72.7351 34.7227 73.0398 34.23C73.3522 33.7372 73.8912 32.9472 74.2506 32.4701C74.6099 31.9929 75.1958 31.289 75.5551 30.8901C75.9067 30.4912 76.5003 29.8967 76.8675 29.5682C77.2346 29.2397 77.8127 28.7547 78.1564 28.4888C78.5001 28.2307 79.0626 27.8396 79.4063 27.6284C79.75 27.4172 80.3828 27.0731 80.8124 26.8775C81.2421 26.6742 81.8748 26.416 82.2185 26.3065C82.5622 26.1892 83.0934 26.0484 83.3903 25.9858C83.6871 25.9311 84.1636 25.8529 84.4449 25.8216C84.7261 25.7903 85.1792 25.6964 85.4604 25.6104C85.7416 25.5244 86.2494 25.3132 86.5931 25.1411C86.9368 24.969 87.4836 24.6483 87.8039 24.4293C88.1242 24.2025 88.7257 23.6862 89.1319 23.2795C89.5459 22.8728 90.1162 22.2158 90.4052 21.8325C90.6942 21.4492 91.1395 20.7609 91.3973 20.3073C91.6551 19.8536 92.0613 18.9932 92.2956 18.3909C92.5378 17.7886 92.8581 17.0299 93.0221 16.7092C93.194 16.3573 93.4987 15.9271 93.7799 15.6298C94.0767 15.3092 94.4204 15.051 94.7173 14.9024C95.0766 14.7303 95.2875 14.6756 95.6547 14.6756V14.6756ZM26.7241 53.7061C30.2315 53.7061 30.9424 53.7218 31.4189 53.8313C31.7314 53.9017 32.286 54.0972 32.6532 54.2693C33.0203 54.4335 33.489 54.7073 33.7077 54.8716C33.9187 55.0358 34.2858 55.3565 34.5045 55.5912C34.7311 55.8258 35.0279 56.17 35.1607 56.3655C35.2857 56.5611 35.5122 56.9443 35.6529 57.2259C35.8013 57.5075 35.9731 57.9299 36.0434 58.1645C36.1137 58.3992 36.2075 58.9076 36.2544 59.2987C36.3168 59.8149 36.3168 60.2138 36.2465 60.7848C36.1997 61.215 36.0669 61.8329 35.9653 62.1536C35.856 62.4743 35.6216 62.9827 35.4419 63.2878C35.2701 63.5928 34.9107 64.0465 34.6451 64.3046C34.3874 64.5705 33.9343 64.9303 33.6296 65.1024C33.325 65.2823 32.8406 65.5248 32.536 65.6343C32.2313 65.7516 31.7626 65.8924 31.4814 65.955C31.1533 66.0332 30.3018 66.0958 27.2396 66.1818L27.0912 66.3773C26.9584 66.5572 26.9428 66.7215 26.9506 68.4736C26.9506 70.2648 26.9428 70.3743 26.7944 70.5229C26.6459 70.6715 26.5366 70.6793 24.6227 70.6793C22.826 70.6793 22.5995 70.6637 22.4745 70.5385C22.3417 70.4134 22.3339 69.9597 22.3261 62.2005C22.3104 54.3475 22.3182 53.9877 22.4589 53.8469C22.5917 53.7139 22.8338 53.7061 26.7241 53.7061V53.7061ZM26.9506 59.8696C26.9506 61.3089 26.9584 61.4262 27.1068 61.5826C27.2553 61.7547 27.3021 61.7625 28.841 61.7625C30.3331 61.7625 30.4502 61.7547 30.7783 61.5904C31.0205 61.4653 31.2002 61.2932 31.3642 61.0273C31.5751 60.6753 31.5986 60.5814 31.5986 59.9713C31.5986 59.3847 31.5751 59.2517 31.3955 58.9467C31.2783 58.7511 31.0517 58.5008 30.8877 58.3835C30.7158 58.2662 30.4581 58.1332 30.3096 58.0863C30.1612 58.0472 29.4113 58.0081 28.6457 58.0081C27.3646 58.0081 27.2474 58.0237 27.1068 58.1645C26.9584 58.3131 26.9506 58.4226 26.9506 59.8696V59.8696Z" fill="#003895"/>
<path fill-rule="evenodd" clip-rule="evenodd" d="M73.274 53.6504C77.2502 53.6739 77.3986 53.6817 78.0001 53.846C78.3439 53.9476 78.8672 54.1432 79.1719 54.284C79.4765 54.4326 79.9765 54.7533 80.2968 55.0114C80.6171 55.2617 81.0545 55.6763 81.2576 55.9344C81.4685 56.1925 81.7888 56.7009 81.9841 57.0685C82.1716 57.4361 82.3981 57.9993 82.4763 58.32C82.5622 58.6407 82.6559 59.1569 82.6872 59.4542C82.7184 59.767 82.7028 60.338 82.6481 60.7839C82.5934 61.214 82.4763 61.8163 82.3825 62.1135C82.2888 62.4186 82.0779 62.9114 81.9138 63.2086C81.7263 63.5449 81.3826 63.9829 81.0155 64.3427C80.5389 64.8199 80.2655 65.0076 79.6015 65.3361C79.1485 65.5629 78.4845 65.8211 78.1173 65.9149C77.5705 66.0557 77.1174 66.087 73.649 66.1809L73.5006 66.3764C73.3522 66.5563 73.3443 66.6971 73.3522 68.4492C73.36 70.2012 73.3522 70.342 73.0553 70.7175H68.962L68.8135 70.5219C68.6651 70.3342 68.6573 70.1465 68.6651 62.2152C68.6651 56.0282 68.6886 54.0571 68.7589 53.932C68.8135 53.846 68.9229 53.7443 69.0167 53.7052C69.1026 53.6582 70.9149 53.6426 73.274 53.6504V53.6504ZM73.3365 59.9078L73.3522 61.4487C73.774 61.7694 73.8599 61.7694 75.3441 61.7459C76.6487 61.7303 76.9456 61.699 77.1643 61.5895C77.2971 61.5113 77.5236 61.3001 77.6486 61.1202C77.7814 60.9325 77.9298 60.5883 77.9767 60.3537C78.0392 60.033 78.0392 59.8218 77.9767 59.5324C77.9298 59.3212 77.7814 58.9927 77.6486 58.8128C77.5236 58.6251 77.2502 58.3826 77.0393 58.2652C76.68 58.0541 76.6409 58.0462 75.1879 58.0228C73.7115 57.9993 73.7037 57.9993 73.5162 58.1792C73.3209 58.3669 73.3209 58.3748 73.3365 59.9078V59.9078ZM91.0066 53.627L91.3972 54.018V66.0244L91.7488 66.3842L95.4203 66.3764C98.9512 66.3686 99.0996 66.3764 99.4824 66.6736L99.5058 68.4257C99.5214 69.7241 99.498 70.2247 99.4277 70.389C99.373 70.5063 99.2402 70.6393 99.1308 70.6784C99.0059 70.7331 96.7639 70.7488 87.007 70.7175L86.8586 70.5219C86.7102 70.3342 86.7024 70.1465 86.7102 62.2152C86.7102 56.0282 86.7336 54.0571 86.8039 53.932C86.8586 53.846 86.968 53.7443 87.0617 53.7052C87.1477 53.6661 88.0694 53.6348 91.0066 53.627V53.627ZM104.943 53.7052C106.802 53.6973 106.997 53.713 107.114 53.8381C107.232 53.9633 107.247 54.4248 107.271 59.2195C107.294 64.3975 107.294 64.4679 107.466 64.8903C107.56 65.1249 107.802 65.5082 108.013 65.7428C108.216 65.9697 108.544 66.2434 108.739 66.3373C108.935 66.439 109.302 66.5563 109.559 66.6111C109.927 66.6893 110.138 66.6893 110.536 66.6111C110.817 66.5641 111.216 66.4233 111.426 66.3138C111.637 66.1965 111.934 65.9618 112.083 65.7898C112.239 65.6177 112.45 65.2814 112.762 64.6165L112.778 59.4542C112.794 56.6149 112.817 54.2136 112.84 54.1197C112.864 54.018 112.934 53.8851 113.004 53.8225C113.106 53.7208 113.458 53.7052 115.153 53.7052C117.074 53.7052 117.184 53.713 117.332 53.8616C117.488 54.018 117.488 54.1041 117.442 65.0858L117.238 65.8289C117.129 66.2356 116.949 66.7675 116.848 67.0021C116.738 67.2368 116.52 67.6435 116.356 67.9016C116.192 68.1598 115.848 68.5978 115.582 68.8715C115.317 69.1453 114.895 69.5129 114.637 69.685C114.379 69.8649 113.887 70.1387 113.543 70.2951C113.2 70.4594 112.606 70.6705 112.215 70.7722C111.614 70.9208 111.309 70.9443 110.106 70.9521C109.013 70.9521 108.56 70.9208 108.075 70.8035C107.732 70.7253 107.185 70.5532 106.864 70.4202C106.544 70.2873 106.083 70.0683 105.849 69.9275C105.615 69.7867 105.24 69.5207 105.021 69.333C104.802 69.1453 104.443 68.7855 104.216 68.5274C103.998 68.2693 103.638 67.7061 103.419 67.2759C103.209 66.8457 102.959 66.2121 102.865 65.868C102.693 65.2579 102.685 65.1249 102.646 59.6184C102.615 54.2058 102.615 53.9946 102.755 53.8538C102.896 53.713 103.06 53.7052 104.943 53.7052V53.7052Z" fill="#EBB70C"/>
</svg>
